<svg width="25" height="26" viewBox="0 0 25 26" fill="none" xmlns="http://www.w3.org/2000/svg">
<path d="M25 13C25 5.81953 19.4043 0 12.5 0C5.5957 0 0 5.81953 0 13C0 20.1805 5.5957 26 12.5 26C12.5732 26 12.6465 26 12.7197 25.9949V15.8793H10.0342V12.6242H12.7197V10.2273C12.7197 7.44961 14.3506 5.93633 16.7334 5.93633C17.876 5.93633 18.8574 6.02266 19.1406 6.06328V8.96797H17.5C16.2061 8.96797 15.9521 9.60781 15.9521 10.5473V12.6191H19.0527L18.6475 15.8742H15.9521V25.4973C21.1768 23.9383 25 18.9363 25 13V13Z" fill="#1549CD"/>
</svg>
