<svg width="26" height="26" viewBox="0 0 26 26" fill="none" xmlns="http://www.w3.org/2000/svg">
<path d="M12.6953 15.3613C14.1677 15.3613 15.3613 14.1677 15.3613 12.6953C15.3613 11.2229 14.1677 10.0293 12.6953 10.0293C11.2229 10.0293 10.0293 11.2229 10.0293 12.6953C10.0293 14.1677 11.2229 15.3613 12.6953 15.3613Z" fill="#1549CD"/>
<path d="M12.6953 0C5.68389 0 0 5.68389 0 12.6953C0 19.7067 5.68389 25.3906 12.6953 25.3906C19.7067 25.3906 25.3906 19.7067 25.3906 12.6953C25.3906 5.68389 19.7067 0 12.6953 0ZM20.5389 15.922C20.4779 17.1289 20.1388 18.3191 19.2592 19.1894C18.3711 20.0679 17.1752 20.3952 15.9566 20.4556H9.43404C8.21529 20.3952 7.01959 20.0681 6.13148 19.1894C5.25185 18.3191 4.91273 17.1289 4.85179 15.922V9.46867C4.91273 8.2617 5.2519 7.07149 6.13148 6.2012C7.01959 5.32269 8.21544 4.99535 9.43404 4.93507H15.9566C17.1753 4.99535 18.371 5.32254 19.2591 6.2012C20.1388 7.07149 20.4779 8.2617 20.5388 9.46867L20.5389 15.922Z" fill="#1549CD"/>
<path d="M15.8743 6.40524C14.2855 6.36167 11.1056 6.36167 9.51688 6.40524C8.69011 6.42794 7.75284 6.63375 7.16378 7.26293C6.55166 7.91694 6.32035 8.7071 6.29689 9.59105C6.25566 11.1425 6.29689 15.7992 6.29689 15.7992C6.32375 16.683 6.55166 17.4733 7.16378 18.1273C7.75284 18.7567 8.69011 18.9623 9.51688 18.985C11.1056 19.0285 14.2855 19.0285 15.8743 18.985C16.7011 18.9623 17.6383 18.7565 18.2274 18.1273C18.8395 17.4733 19.0708 16.6831 19.0943 15.7992V9.59105C19.0708 8.7071 18.8395 7.91694 18.2274 7.26293C17.6381 6.63355 16.7009 6.42794 15.8743 6.40524V6.40524ZM12.6954 16.8274C11.8781 16.8274 11.0791 16.5851 10.3996 16.131C9.72003 15.6769 9.19038 15.0316 8.87761 14.2765C8.56484 13.5214 8.48301 12.6905 8.64246 11.8889C8.8019 11.0873 9.19547 10.351 9.77338 9.77311C10.3513 9.19519 11.0876 8.80163 11.8892 8.64218C12.6908 8.48273 13.5217 8.56457 14.2768 8.87733C15.0318 9.1901 15.6772 9.71975 16.1313 10.3993C16.5853 11.0789 16.8277 11.8778 16.8277 12.6951C16.8277 13.7911 16.3923 14.8421 15.6174 15.6171C14.8424 16.3921 13.7913 16.8274 12.6954 16.8274V16.8274ZM16.8453 9.41575C16.6818 9.41571 16.5221 9.36721 16.3862 9.27637C16.2503 9.18553 16.1444 9.05644 16.0819 8.90542C16.0193 8.7544 16.003 8.58823 16.0349 8.42793C16.0668 8.26762 16.1456 8.12038 16.2612 8.00482C16.3767 7.88925 16.524 7.81056 16.6843 7.77869C16.8446 7.74682 17.0108 7.76319 17.1618 7.82575C17.3128 7.88831 17.4419 7.99424 17.5327 8.13015C17.6235 8.26606 17.6719 8.42584 17.6719 8.58929C17.6719 8.69784 17.6506 8.80532 17.609 8.90561C17.5675 9.00589 17.5066 9.09701 17.4298 9.17376C17.353 9.2505 17.2619 9.31138 17.1616 9.3529C17.0613 9.39442 16.9538 9.41578 16.8453 9.41575Z" fill="#1549CD"/>
</svg>
