<svg width="25" height="26" viewBox="0 0 25 26" fill="none" xmlns="http://www.w3.org/2000/svg">
<path d="M12.4999 0C10.0277 0 7.61093 0.762437 5.55532 2.1909C3.4997 3.61935 1.89755 5.64968 0.95145 8.02512C0.00535499 10.4006 -0.242187 13.0144 0.240129 15.5362C0.722444 18.0579 1.91295 20.3743 3.66111 22.1924C5.40927 24.0105 7.63655 25.2486 10.0613 25.7502C12.4861 26.2518 14.9994 25.9944 17.2835 25.0104C19.5676 24.0265 21.5198 22.3603 22.8933 20.2224C24.2668 18.0846 24.9999 15.5712 24.9999 13C24.9999 9.55219 23.683 6.24559 21.3388 3.80761C18.9946 1.36964 15.8152 0 12.4999 0V0ZM8.86508 19.8421H6.1381V10.7062H8.86508V19.8421ZM7.49994 9.45921C7.18611 9.46056 6.87893 9.36511 6.61724 9.18494C6.35555 9.00476 6.15109 8.74794 6.02972 8.44695C5.90834 8.14595 5.87549 7.81428 5.93533 7.49388C5.99516 7.17347 6.14499 6.8787 6.36587 6.64683C6.58675 6.41496 6.86877 6.2564 7.17629 6.19119C7.4838 6.12598 7.803 6.15705 8.09354 6.28047C8.38408 6.40388 8.63292 6.61411 8.80859 6.88458C8.98427 7.15505 9.07891 7.47361 9.08054 7.8C9.08142 8.23767 8.91564 8.6579 8.61946 8.96882C8.32327 9.27973 7.92077 9.45605 7.49994 9.45921ZM19.0789 19.8421H16.3536V15.3947C16.3536 14.3342 16.3338 12.9743 14.9358 12.9743C13.5378 12.9743 13.2911 14.1272 13.2911 15.3178V19.8421H10.5756V10.7062H13.1924V11.9514H13.2302C13.5937 11.233 14.4835 10.4753 15.8108 10.4753C18.5707 10.4753 19.0789 12.3671 19.0789 14.8234V19.8421Z" fill="#1549CD"/>
</svg>
