<svg width="26" height="26" viewBox="0 0 26 26" fill="none" xmlns="http://www.w3.org/2000/svg">
<path d="M13 0C5.83183 0 0 5.83183 0 13C0 20.1676 5.83183 26 13 26C20.1676 26 26 20.1676 26 13C26 5.83183 20.1687 0 13 0ZM18.7994 10.0246C18.8051 10.1535 18.8083 10.2833 18.8083 10.4132C18.8083 14.3672 15.7994 18.925 10.2943 18.925C8.60453 18.925 7.0315 18.4312 5.70773 17.5819C5.94179 17.6096 6.18005 17.6238 6.42145 17.6238C7.82377 17.6238 9.11351 17.1452 10.1378 16.3429C8.82865 16.3189 7.72323 15.4538 7.34254 14.2646C7.52477 14.2992 7.71276 14.3185 7.90494 14.3185C8.17776 14.3185 8.44272 14.2829 8.69355 14.2143C7.32474 13.9399 6.29368 12.7308 6.29368 11.2803C6.29368 11.2678 6.29368 11.2547 6.29421 11.2426C6.69741 11.4662 7.15874 11.6013 7.64888 11.6165C6.84665 11.0808 6.31829 10.1645 6.31829 9.1266C6.31829 8.57782 6.46544 8.0636 6.72307 7.62165C8.19818 9.43241 10.4038 10.6232 12.89 10.7489C12.8387 10.5294 12.8131 10.3017 12.8131 10.0665C12.8131 8.41444 14.1525 7.07444 15.8046 7.07444C16.6655 7.07444 17.4421 7.43785 17.9888 8.01909C18.6711 7.88504 19.3099 7.63683 19.8896 7.2928C19.6644 7.99186 19.1916 8.57782 18.5721 8.94856C19.178 8.8763 19.7561 8.71606 20.2907 8.47781C19.8917 9.07685 19.3843 9.60416 18.7994 10.0246Z" fill="#1549CD"/>
</svg>
