<svg width="26" height="26" viewBox="0 0 26 26" fill="none" xmlns="http://www.w3.org/2000/svg">
<path d="M11.1971 15.0972L14.8029 13.0052L11.1971 10.903V15.0972Z" fill="#1549CD"/>
<path d="M12.9999 0C10.4288 0 7.91537 0.762437 5.77753 2.1909C3.63969 3.61935 1.97345 5.64968 0.989511 8.02512C0.00557163 10.4006 -0.251872 13.0144 0.249736 15.5362C0.751344 18.0579 1.98947 20.3743 3.80756 22.1924C5.62564 24.0105 7.94202 25.2486 10.4638 25.7502C12.9855 26.2518 15.5994 25.9944 17.9748 25.0104C20.3503 24.0265 22.3806 22.3603 23.809 20.2224C25.2375 18.0846 25.9999 15.5712 25.9999 13C25.9999 9.55219 24.6303 6.24559 22.1923 3.80761C19.7544 1.36964 16.4478 0 12.9999 0V0ZM19.8421 15.3007C19.8423 15.6407 19.7755 15.9774 19.6455 16.2916C19.5156 16.6058 19.325 16.8913 19.0846 17.1318C18.8443 17.3723 18.5589 17.5631 18.2448 17.6932C17.9307 17.8234 17.594 17.8904 17.254 17.8904H8.74587C8.40586 17.8904 8.06918 17.8234 7.75508 17.6932C7.44097 17.5631 7.15559 17.3723 6.91525 17.1318C6.67491 16.8913 6.48431 16.6058 6.35435 16.2916C6.22439 15.9774 6.15762 15.6407 6.15784 15.3007V10.6993C6.15762 10.3593 6.22439 10.0226 6.35435 9.70842C6.48431 9.39423 6.67491 9.10873 6.91525 8.86823C7.15559 8.62772 7.44097 8.43694 7.75508 8.30677C8.06918 8.1766 8.40586 8.10961 8.74587 8.10961H17.254C17.594 8.10961 17.9307 8.1766 18.2448 8.30677C18.5589 8.43694 18.8443 8.62772 19.0846 8.86823C19.325 9.10873 19.5156 9.39423 19.6455 9.70842C19.7755 10.0226 19.8423 10.3593 19.8421 10.6993V15.3007Z" fill="#1549CD"/>
</svg>
